<?xml version="1.0" encoding="utf-8"?>
<!-- Generator: Adobe Illustrator 19.2.1, SVG Export Plug-In . SVG Version: 6.00 Build 0)  -->
<svg version="1.1" id="Layer_1" xmlns="http://www.w3.org/2000/svg" xmlns:xlink="http://www.w3.org/1999/xlink" x="0px" y="0px"
	 viewBox="0 0 595.3 841.9" style="enable-background:new 0 0 595.3 841.9;" xml:space="preserve">
<style type="text/css">
	.st0{fill:#00FFFF;stroke:#00FFFF;stroke-miterlimit:10;}
</style>
<path d="M135.2,376c12.6,0.2,25.3,0.4,37.9,0.5c22,0.3,44,0.6,66,0.9c8.5,0.1,17,0.2,25.4,0.4c0.8,0,1.1-0.2,1.3-1
	c12.6-41.1,25.3-82.1,38-123.2c0.1-0.3,0.2-0.5,0.3-1c12.9,42.1,25.7,84,38.5,125.9c44.3-0.9,88.6-1.7,133.1-2.6
	c-0.4,0.3-0.6,0.5-0.9,0.7c-19.6,13.7-39.2,27.5-58.8,41.2c-15.8,11.1-31.6,22.2-47.4,33.2c-0.6,0.4-0.8,0.8-0.5,1.5
	c13.8,40.6,27.5,81.1,41.2,121.7c0.1,0.3,0.2,0.6,0.4,1.2c-35.3-26.1-70.5-52-105.7-77.9c-35.3,26-70.6,52-106.1,78.2
	c0.1-0.5,0.2-0.7,0.3-1c14.4-40.7,28.7-81.4,43.1-122.1c0.3-0.7,0.2-1.1-0.5-1.5c-35.1-24.3-70.1-48.7-105.1-73.1
	c-0.2-0.1-0.4-0.3-0.6-0.5C135.2,376.9,135.2,376.5,135.2,376z M257.6,446.4c-10.9,31-21.9,62-32.8,92.9c0,0,0.1,0.1,0.1,0.1
	c26.4-19.5,52.8-38.9,79.2-58.4c26.5,19.6,53.1,39.1,79.6,58.7c0,0,0.1-0.1,0.1-0.1c-10.5-31.1-21-62.1-31.6-93.2
	c26.8-18.8,53.6-37.6,80.4-56.3c-0.4-0.2-0.7-0.2-1-0.2c-8.8,0.2-17.6,0.3-26.4,0.5c-23.7,0.5-47.5,0.9-71.2,1.4
	c-0.8,0-1.1-0.2-1.3-0.9c-9.4-30.8-18.9-61.7-28.3-92.5c-0.1-0.3-0.2-0.5-0.3-0.9c-0.1,0.4-0.2,0.6-0.3,0.8
	c-9.4,30.6-18.9,61.2-28.3,91.8c-0.2,0.8-0.5,1-1.3,0.9c-14.4-0.2-28.9-0.4-43.3-0.6c-17.9-0.2-35.8-0.5-53.6-0.7c-0.3,0-0.7,0-1,0
	c0,0.1,0,0.1,0,0.2C203.4,408.8,230.4,427.6,257.6,446.4z"/>
<path class="st0" d="M257.6,446.4c-27.1-18.9-54.2-37.7-81.3-56.5c0-0.1,0-0.1,0-0.2c0.3,0,0.7,0,1,0c17.9,0.2,35.8,0.5,53.6,0.7
	c14.4,0.2,28.9,0.4,43.3,0.6c0.8,0,1.1-0.2,1.3-0.9c9.4-30.6,18.9-61.2,28.3-91.8c0.1-0.2,0.1-0.4,0.3-0.8c0.1,0.4,0.2,0.6,0.3,0.9
	c9.4,30.8,18.9,61.7,28.3,92.5c0.2,0.8,0.5,1,1.3,0.9c23.7-0.5,47.5-0.9,71.2-1.4c8.8-0.2,17.6-0.3,26.4-0.5c0.3,0,0.6,0,1,0.2
	c-26.8,18.8-53.6,37.5-80.4,56.3c10.5,31.1,21.1,62.2,31.6,93.2c0,0-0.1,0.1-0.1,0.1c-26.5-19.5-53-39.1-79.6-58.7
	c-26.4,19.5-52.8,38.9-79.2,58.4c0,0-0.1-0.1-0.1-0.1C235.7,508.4,246.6,477.5,257.6,446.4z"/>
</svg>
