<?xml version="1.0" encoding="UTF-8" standalone="no"?>
<!-- Created with Inkscape (http://www.inkscape.org/) -->

<svg
   xmlns:dc="http://purl.org/dc/elements/1.1/"
   xmlns:cc="http://creativecommons.org/ns#"
   xmlns:rdf="http://www.w3.org/1999/02/22-rdf-syntax-ns#"
   xmlns:svg="http://www.w3.org/2000/svg"
   xmlns="http://www.w3.org/2000/svg"
   xmlns:sodipodi="http://sodipodi.sourceforge.net/DTD/sodipodi-0.dtd"
   xmlns:inkscape="http://www.inkscape.org/namespaces/inkscape"
   width="500"
   height="500"
   viewBox="0 0 500.00001 500.00001"
   id="svg4261"
   version="1.1"
   inkscape:version="0.91 r13725"
   sodipodi:docname="rain_gray.svg">
  <sodipodi:namedview
     id="base"
     pagecolor="#ffffff"
     bordercolor="#666666"
     borderopacity="1.0"
     inkscape:pageopacity="0.0"
     inkscape:pageshadow="2"
     inkscape:zoom="1.2006673"
     inkscape:cx="267.95281"
     inkscape:cy="247.77374"
     inkscape:document-units="px"
     inkscape:current-layer="svg4261"
     showgrid="false"
     units="px"
     showguides="true"
     inkscape:window-width="1825"
     inkscape:window-height="1046"
     inkscape:window-x="-11"
     inkscape:window-y="-11"
     inkscape:window-maximized="1"
     inkscape:snap-object-midpoints="true">
    <sodipodi:guide
       id="guide4968"
       orientation="500.0,0"
       position="250.0,0" />
    <sodipodi:guide
       id="guide4970"
       orientation="0,500.0"
       position="0,250.0" />
  </sodipodi:namedview>
  <defs
     id="defs4263" />
  <metadata
     id="metadata4266">
    <rdf:RDF>
      <cc:Work
         rdf:about="">
        <dc:format>image/svg+xml</dc:format>
        <dc:type
           rdf:resource="http://purl.org/dc/dcmitype/StillImage" />
        <dc:title></dc:title>
      </cc:Work>
    </rdf:RDF>
  </metadata>
  <g
     inkscape:label="Layer 1"
     inkscape:groupmode="layer"
     id="layer1"
     transform="translate(0,-552.36216)" />
  <g
     id="layer1-5"
     transform="translate(-62.500007,-489.86131)"
     style="display:inline;fill:#4d4d4d">
    <path
       style="opacity:1;fill:#4d4d4d;fill-opacity:1;stroke:none;stroke-width:4;stroke-linecap:butt;stroke-miterlimit:4;stroke-dasharray:none;stroke-dashoffset:0;stroke-opacity:1"
       d="M 302.91016,-3.6777344 A 111.24872,111.24872 0 0 0 204.27539,56.320312 98.360148,98.360148 0 0 0 183.52148,53.982422 98.360148,98.360148 0 0 0 88.193359,128.61328 84.793231,84.793231 0 0 0 3.7597656,213.39453 84.793231,84.793231 0 0 0 88.552734,298.1875 a 84.793231,84.793231 0 0 0 56.591796,-21.86328 84.793231,84.793231 0 0 0 56.69336,21.86328 84.793231,84.793231 0 0 0 44.82617,-12.875 84.793231,84.793231 0 0 0 44.71485,12.875 84.793231,84.793231 0 0 0 48.58203,-15.42188 102.43022,102.43022 0 0 0 53.84765,15.42188 A 102.43022,102.43022 0 0 0 496.24023,195.75781 102.43022,102.43022 0 0 0 413.41992,95.257812 111.24872,111.24872 0 0 0 302.91016,-3.6777344 Z M 404.36719,319.51172 c -4.49214,1.57933 -44.04966,15.99563 -40.35938,32.96094 0,11.09938 8.99828,20.09765 20.09766,20.09765 11.09938,0 20.0957,-8.99827 20.0957,-20.09765 2.04694,-3.56125 0.16602,-32.96094 0.16602,-32.96094 z m -313.455081,9.70703 c -4.49214,1.57933 -44.051628,15.99369 -40.361328,32.95898 0,11.09938 8.998275,20.09766 20.097657,20.09766 11.099378,0 20.097656,-8.99828 20.097656,-20.09766 2.04694,-3.56123 0.166015,-32.95898 0.166015,-32.95898 z m 97.937501,24.66406 c -4.49215,1.57932 -44.05161,15.99563 -40.36133,32.96094 0,11.09938 8.99828,20.09766 20.09766,20.09766 11.09938,0 20.09765,-8.99828 20.09765,-20.09766 2.04693,-3.56125 0.16602,-32.96094 0.16602,-32.96094 z m 100.64258,23.30078 c -4.49214,1.57932 -44.05163,15.99565 -40.36133,32.96094 0,11.09938 8.99828,20.09766 20.09766,20.09766 11.09938,0 20.09765,-8.99828 20.09765,-20.09766 2.04694,-3.56123 0.16602,-32.96094 0.16602,-32.96094 z m -94.01367,65.23438 c -4.49215,1.57932 -44.05162,15.99564 -40.36133,32.96094 0,11.09938 8.99827,20.09765 20.09765,20.09765 11.09938,0 20.09766,-8.99827 20.09766,-20.09765 2.04693,-3.56124 0.16602,-32.96094 0.16602,-32.96094 z m 140.77734,0.84765 c -4.49214,1.57935 -44.05161,15.99563 -40.36133,32.96094 0,11.09938 8.99828,20.09571 20.09766,20.09571 11.09938,0 20.09765,-8.99633 20.09765,-20.09571 2.04694,-3.56125 0.16602,-32.96094 0.16602,-32.96094 z"
       transform="translate(62.500004,493.53905)"
       id="path4283"
       inkscape:connector-curvature="0" />
  </g>
</svg>
